<svg xmlns="http://www.w3.org/2000/svg" xmlns:xlink="http://www.w3.org/1999/xlink" width="500" zoomAndPan="magnify" viewBox="0 0 375 374.999991" height="500" preserveAspectRatio="xMidYMid meet" version="1.0"><defs><g/><clipPath id="0097f39caa"><path d="M 80.039062 60.027344 L 295 60.027344 L 295 119.277344 L 80.039062 119.277344 Z M 80.039062 60.027344 " clip-rule="nonzero"/></clipPath><clipPath id="b0adc4a739"><path d="M 259.699219 110.453125 L 312.199219 110.453125 L 312.199219 181.703125 L 259.699219 181.703125 Z M 259.699219 110.453125 " clip-rule="nonzero"/></clipPath><clipPath id="e502a3a95a"><path d="M 80 181.546875 L 294.949219 181.546875 L 294.949219 240.796875 L 80 240.796875 Z M 80 181.546875 " clip-rule="nonzero"/></clipPath></defs><g clip-path="url(#0097f39caa)"><path fill="#f5793b" d="M 187.496094 69.3125 L 294.953125 119.089844 L 187.910156 60.417969 L 187.730469 60.0625 L 187.496094 60.191406 L 187.261719 60.0625 L 187.082031 60.417969 L 80.039062 119.089844 L 187.496094 69.3125 " fill-opacity="1" fill-rule="nonzero"/></g><g clip-path="url(#b0adc4a739)"><path fill="#000000" d="M 311.574219 110.648438 C 311.175781 110.449219 310.765625 110.542969 310.390625 110.949219 C 309.921875 111.457031 309.679688 112.058594 309.753906 112.75 C 309.777344 112.96875 309.738281 113.097656 309.585938 113.261719 C 309.105469 113.761719 308.660156 114.289062 308.199219 114.804688 C 306.914062 116.234375 305.625 117.664062 304.347656 119.101562 C 304.21875 119.246094 304.164062 119.257812 304.011719 119.132812 C 302.855469 118.1875 301.542969 117.886719 300.109375 118.316406 C 298.289062 118.867188 297.03125 120.570312 296.980469 122.476562 C 296.96875 122.984375 297.0625 123.472656 297.234375 123.949219 C 297.261719 124.023438 297.300781 124.125 297.164062 124.089844 C 297.042969 124.058594 296.9375 124.097656 296.824219 124.105469 C 295.234375 124.210938 293.648438 124.335938 292.058594 124.421875 C 290.117188 124.519531 288.171875 124.574219 286.230469 124.597656 C 282.917969 124.640625 279.605469 124.644531 276.292969 124.558594 C 274.378906 124.507812 272.464844 124.425781 270.550781 124.296875 C 268.609375 124.164062 266.664062 124.03125 264.726562 123.808594 C 263.5 123.667969 262.277344 123.5 261.070312 123.25 C 260.894531 123.214844 260.722656 123.148438 260.550781 123.089844 C 260.484375 123.066406 260.410156 123.03125 260.40625 122.953125 C 260.402344 122.875 260.472656 122.835938 260.53125 122.796875 C 260.5625 122.773438 260.605469 122.761719 260.644531 122.742188 C 261.242188 122.453125 261.886719 122.316406 262.527344 122.175781 C 264.070312 121.832031 265.640625 121.664062 267.207031 121.511719 C 269.34375 121.304688 271.488281 121.164062 273.632812 121.054688 C 275.984375 120.9375 278.34375 120.871094 280.699219 120.847656 C 284.597656 120.804688 288.492188 120.835938 292.382812 121.007812 C 293.28125 121.046875 294.175781 121.113281 295.070312 121.199219 C 295.585938 121.246094 296.105469 121.285156 296.621094 121.335938 C 296.828125 121.355469 296.796875 121.183594 296.824219 121.085938 C 296.859375 120.953125 296.730469 120.996094 296.667969 120.992188 C 295.328125 120.847656 293.984375 120.777344 292.636719 120.714844 C 290.34375 120.605469 288.050781 120.5625 285.757812 120.539062 C 283.40625 120.511719 281.054688 120.527344 278.703125 120.570312 C 276.6875 120.605469 274.675781 120.683594 272.664062 120.765625 C 270.261719 120.863281 267.863281 121.0625 265.472656 121.332031 C 264.359375 121.460938 263.25 121.605469 262.152344 121.84375 C 261.515625 121.984375 260.875 122.113281 260.285156 122.40625 C 259.765625 122.664062 259.703125 122.949219 260.0625 123.390625 C 260.074219 123.40625 260.089844 123.421875 260.101562 123.4375 C 261.375 125.035156 262.703125 126.582031 264.015625 128.144531 C 266.21875 130.769531 268.433594 133.382812 270.691406 135.957031 C 272.695312 138.238281 274.730469 140.488281 276.796875 142.710938 C 278.226562 144.246094 279.65625 145.785156 281.214844 147.191406 C 281.316406 147.28125 281.355469 147.390625 281.367188 147.523438 C 281.476562 148.886719 281.636719 150.242188 281.75 151.605469 C 281.886719 153.308594 282.023438 155.011719 282.105469 156.714844 C 282.222656 159.09375 282.28125 161.472656 282.289062 163.851562 C 282.300781 166.898438 282.226562 169.945312 282.054688 172.992188 C 282.015625 173.699219 281.988281 174.410156 281.867188 175.117188 C 281.820312 175.398438 281.683594 175.566406 281.425781 175.695312 C 280.59375 176.109375 279.707031 176.359375 278.8125 176.601562 C 277.691406 176.898438 276.542969 177.105469 275.429688 177.433594 C 274.628906 177.671875 273.820312 177.910156 273.144531 178.414062 C 272.417969 178.957031 272.425781 179.519531 273.054688 180.050781 C 273.195312 180.171875 273.355469 180.257812 273.519531 180.335938 C 274.253906 180.683594 275.03125 180.882812 275.820312 181.039062 C 277.363281 181.34375 278.921875 181.519531 280.496094 181.597656 C 282.464844 181.703125 284.4375 181.695312 286.40625 181.566406 C 288.46875 181.433594 290.503906 181.117188 292.503906 180.605469 C 293.140625 180.441406 293.773438 180.246094 294.3125 179.84375 C 294.855469 179.4375 294.875 178.953125 294.378906 178.492188 C 294.136719 178.261719 293.839844 178.117188 293.542969 177.980469 C 292.535156 177.523438 291.460938 177.28125 290.386719 177.054688 C 289.167969 176.796875 287.941406 176.570312 286.75 176.191406 C 286.25 176.035156 285.761719 175.84375 285.320312 175.550781 C 285.195312 175.464844 285.125 175.359375 285.101562 175.214844 C 284.988281 174.550781 284.945312 173.882812 284.898438 173.21875 C 284.765625 171.402344 284.675781 169.582031 284.628906 167.761719 C 284.507812 163.023438 284.632812 158.289062 285.066406 153.566406 C 285.242188 151.628906 285.527344 149.707031 285.78125 147.777344 C 285.796875 147.640625 285.816406 147.507812 285.925781 147.398438 C 286.984375 146.308594 287.964844 145.152344 288.941406 143.988281 C 290.242188 142.4375 291.546875 140.882812 292.839844 139.324219 C 293.730469 138.253906 294.605469 137.175781 295.484375 136.097656 C 296.242188 135.171875 296.996094 134.242188 297.746094 133.3125 C 298.414062 132.480469 299.078125 131.640625 299.746094 130.808594 C 300.394531 130 301.027344 129.183594 301.695312 128.394531 C 302.445312 127.507812 303.070312 126.523438 304.058594 125.835938 C 304.980469 125.191406 305.464844 124.175781 305.949219 123.183594 C 305.976562 123.128906 305.988281 123.066406 306.003906 123.003906 C 306.0625 122.753906 305.972656 122.535156 305.761719 122.386719 C 305.65625 122.316406 305.621094 122.324219 305.609375 122.457031 C 305.582031 122.71875 305.5625 122.988281 305.5 123.242188 C 305.152344 124.652344 304.238281 125.605469 302.984375 126.273438 C 302.585938 126.484375 302.171875 126.621094 301.859375 127.019531 C 300.589844 128.632812 299.269531 130.207031 297.96875 131.796875 C 297.914062 131.867188 297.878906 131.902344 297.820312 131.808594 C 297.753906 131.691406 297.667969 131.59375 297.554688 131.515625 C 297.488281 131.472656 297.484375 131.433594 297.550781 131.371094 C 297.71875 131.203125 297.875 131.023438 298.03125 130.847656 C 299.203125 129.492188 300.335938 128.105469 301.527344 126.769531 C 301.5625 126.730469 301.605469 126.691406 301.59375 126.605469 C 301.429688 126.613281 301.285156 126.671875 301.175781 126.796875 C 301.003906 126.988281 300.839844 127.1875 300.671875 127.386719 C 299.59375 128.632812 298.511719 129.878906 297.441406 131.132812 C 297.304688 131.292969 297.199219 131.332031 297 131.238281 C 296.085938 130.808594 295.101562 130.617188 294.113281 130.460938 C 294.074219 130.453125 294.019531 130.476562 294 130.429688 C 293.972656 130.367188 294.023438 130.328125 294.0625 130.285156 C 294.277344 130.058594 294.5 129.835938 294.710938 129.601562 C 295.898438 128.308594 297.085938 127.015625 298.269531 125.71875 C 298.378906 125.597656 298.441406 125.597656 298.570312 125.703125 C 299.648438 126.554688 300.863281 126.8125 302.1875 126.453125 C 303.285156 126.152344 304.078125 125.4375 304.65625 124.488281 C 305.488281 123.128906 305.480469 121.445312 304.339844 120.160156 C 304.285156 120.101562 304.253906 120.054688 304.328125 119.988281 C 304.796875 119.554688 305.183594 119.046875 305.605469 118.574219 C 306.765625 117.28125 307.910156 115.980469 309.058594 114.683594 C 309.378906 114.320312 309.710938 113.96875 310.011719 113.59375 C 310.101562 113.480469 310.175781 113.445312 310.304688 113.472656 C 310.515625 113.519531 310.726562 113.496094 310.914062 113.390625 C 311.546875 113.039062 311.964844 112.511719 312.09375 111.796875 C 312.191406 111.277344 311.984375 110.851562 311.574219 110.648438 Z M 299.167969 119.605469 C 299.886719 119.039062 300.703125 118.726562 301.722656 118.738281 C 302.46875 118.707031 303.195312 119.007812 303.878906 119.449219 C 303.9375 119.488281 303.988281 119.53125 303.917969 119.597656 C 303.839844 119.667969 303.785156 119.820312 303.632812 119.699219 C 303.371094 119.492188 303.074219 119.347656 302.761719 119.242188 C 301.308594 118.753906 299.667969 119.300781 298.699219 120.488281 C 297.921875 121.445312 297.664062 122.535156 297.847656 123.746094 C 297.859375 123.828125 297.953125 123.976562 297.796875 124.007812 C 297.652344 124.035156 297.664062 123.871094 297.644531 123.78125 C 297.238281 122.101562 297.886719 120.617188 299.167969 119.605469 Z M 303.195312 121.324219 C 303.167969 121.523438 303.125 121.722656 302.996094 121.886719 C 302.945312 121.957031 302.90625 121.976562 302.875 121.871094 C 302.636719 121.09375 302.097656 120.628906 301.316406 120.421875 C 301.304688 120.421875 301.296875 120.40625 301.285156 120.398438 C 301.59375 120.089844 302.183594 120.015625 302.609375 120.226562 C 303.046875 120.441406 303.261719 120.84375 303.195312 121.324219 Z M 269.425781 132.085938 C 269.292969 132.265625 269.253906 132.472656 269.226562 132.714844 C 266.550781 129.867188 264.050781 126.878906 261.445312 123.972656 C 261.699219 123.917969 262.089844 124.03125 262.246094 124.199219 C 263.796875 125.882812 265.347656 127.5625 266.894531 129.246094 C 267.722656 130.140625 268.546875 131.03125 269.371094 131.925781 C 269.414062 131.972656 269.476562 132.015625 269.425781 132.085938 Z M 269.675781 132.421875 C 269.75 132.359375 269.800781 132.449219 269.84375 132.492188 C 270.085938 132.707031 270.324219 132.929688 270.558594 133.148438 C 270.535156 133.175781 270.511719 133.203125 270.484375 133.230469 C 270.195312 133.058594 269.859375 132.945312 269.6875 132.613281 C 269.65625 132.550781 269.613281 132.472656 269.675781 132.421875 Z M 288.816406 177.273438 C 290.242188 177.578125 291.699219 177.789062 293.042969 178.402344 C 293.234375 178.488281 293.417969 178.585938 293.566406 178.742188 C 293.789062 178.980469 293.773438 179.210938 293.507812 179.398438 C 293.050781 179.722656 292.515625 179.878906 291.980469 180.023438 C 290.828125 180.332031 289.648438 180.5 288.46875 180.652344 C 286.246094 180.941406 284.007812 181.011719 281.769531 180.949219 C 280.277344 180.902344 278.789062 180.78125 277.3125 180.546875 C 276.464844 180.414062 275.628906 180.257812 274.816406 179.980469 C 274.511719 179.875 274.210938 179.753906 273.949219 179.5625 C 273.839844 179.484375 273.746094 179.390625 273.695312 179.265625 C 273.625 179.101562 273.652344 178.964844 273.789062 178.851562 C 273.988281 178.683594 274.210938 178.554688 274.445312 178.441406 C 275.375 177.976562 276.363281 177.707031 277.378906 177.519531 C 277.5625 177.484375 277.742188 177.425781 277.9375 177.375 C 277.964844 177.421875 277.941406 177.460938 277.929688 177.5 C 277.828125 177.867188 277.898438 178.027344 278.246094 178.199219 C 278.527344 178.335938 278.832031 178.386719 279.136719 178.429688 C 281.289062 178.738281 283.453125 178.753906 285.625 178.613281 C 286.503906 178.554688 287.386719 178.484375 288.246094 178.269531 C 288.515625 178.203125 288.753906 178.082031 288.953125 177.882812 C 289.050781 177.785156 289.117188 177.714844 288.921875 177.664062 C 288.75 177.617188 288.78125 177.4375 288.730469 177.316406 C 288.707031 177.261719 288.777344 177.265625 288.816406 177.273438 Z M 285.675781 176.132812 C 286.398438 176.546875 287.183594 176.792969 287.984375 177.011719 C 288.097656 177.042969 288.214844 177.066406 288.324219 177.113281 C 288.425781 177.152344 288.574219 177.15625 288.570312 177.324219 C 288.5625 177.511719 288.535156 177.6875 288.324219 177.765625 C 288.027344 177.878906 287.714844 177.921875 287.402344 177.972656 C 285.605469 178.273438 283.789062 178.324219 281.972656 178.261719 C 280.902344 178.226562 279.835938 178.101562 278.785156 177.859375 C 278.632812 177.824219 278.488281 177.777344 278.367188 177.675781 C 278.183594 177.523438 278.195312 177.382812 278.40625 177.273438 C 278.789062 177.078125 279.207031 176.980469 279.613281 176.847656 C 280.21875 176.648438 280.816406 176.4375 281.363281 176.09375 C 281.546875 175.976562 281.710938 175.835938 281.90625 175.714844 C 281.839844 175.824219 281.769531 175.933594 281.699219 176.042969 C 281.5 176.355469 281.511719 176.515625 281.773438 176.785156 C 282.0625 177.09375 282.449219 177.199219 282.851562 177.246094 C 283.613281 177.328125 284.363281 177.269531 285.074219 176.949219 C 285.507812 176.753906 285.605469 176.410156 285.320312 176.027344 C 285.265625 175.953125 285.214844 175.878906 285.175781 175.792969 C 285.359375 175.886719 285.5 176.035156 285.675781 176.132812 Z M 284.953125 176.089844 C 285.078125 176.023438 285.101562 176.140625 285.128906 176.203125 C 285.179688 176.320312 285.253906 176.460938 285.070312 176.539062 C 284.800781 176.65625 284.511719 176.71875 284.222656 176.765625 C 283.964844 176.804688 283.707031 176.808594 283.394531 176.816406 C 283.054688 176.8125 282.664062 176.796875 282.285156 176.691406 C 282.179688 176.664062 282.082031 176.632812 281.992188 176.578125 C 281.789062 176.464844 281.769531 176.140625 281.953125 176 C 281.988281 175.972656 282.015625 175.972656 282.046875 175.996094 C 282.503906 176.324219 283.039062 176.355469 283.570312 176.355469 C 284.046875 176.355469 284.519531 176.320312 284.953125 176.089844 Z M 285.089844 148.875 C 284.890625 150.234375 284.765625 151.601562 284.671875 152.972656 C 284.542969 154.878906 284.441406 156.785156 284.351562 158.695312 C 284.210938 161.734375 284.171875 164.773438 284.230469 167.816406 C 284.265625 169.453125 284.398438 171.089844 284.542969 172.722656 C 284.613281 173.519531 284.664062 174.320312 284.71875 175.121094 C 284.734375 175.328125 284.761719 175.535156 284.859375 175.726562 C 284.894531 175.800781 284.890625 175.832031 284.800781 175.851562 C 284.113281 176.011719 283.421875 176.105469 282.722656 175.921875 C 282.648438 175.902344 282.574219 175.878906 282.503906 175.851562 C 282.144531 175.710938 282.128906 175.695312 282.15625 175.316406 C 282.375 172.1875 282.46875 169.058594 282.511719 165.925781 C 282.554688 162.886719 282.546875 159.84375 282.460938 156.800781 C 282.414062 155.113281 282.339844 153.429688 282.273438 151.742188 C 282.234375 150.792969 282.144531 149.847656 282.042969 148.90625 C 282.003906 148.582031 281.976562 148.257812 281.933594 147.855469 C 283.007812 148.84375 284.078125 148.859375 285.214844 148.015625 C 285.167969 148.335938 285.128906 148.605469 285.089844 148.875 Z M 294.464844 136.070312 C 292.277344 138.804688 290.09375 141.539062 287.898438 144.269531 C 287.183594 145.164062 286.503906 146.089844 285.734375 146.941406 C 285.175781 147.5625 284.484375 147.976562 283.617188 148 C 282.972656 148.019531 282.460938 147.699219 281.992188 147.3125 C 281.238281 146.6875 280.605469 145.949219 279.960938 145.21875 C 278.28125 143.308594 276.609375 141.390625 274.929688 139.480469 C 273.382812 137.71875 271.859375 135.941406 270.34375 134.15625 C 270.152344 133.933594 269.945312 133.722656 269.765625 133.480469 C 269.972656 133.566406 270.183594 133.640625 270.382812 133.742188 C 271.628906 134.355469 272.976562 134.601562 274.335938 134.8125 C 276.46875 135.136719 278.617188 135.242188 280.773438 135.300781 C 280.953125 135.304688 281.136719 135.300781 281.335938 135.300781 C 281.132812 135.230469 280.929688 135.222656 280.734375 135.207031 C 279.359375 135.101562 277.988281 134.945312 276.621094 134.746094 C 275.066406 134.519531 273.53125 134.222656 272.027344 133.765625 C 271.8125 133.699219 271.601562 133.628906 271.390625 133.554688 C 271.222656 133.496094 271.078125 133.40625 270.96875 133.257812 C 270.722656 132.933594 270.398438 132.683594 270.136719 132.371094 C 269.972656 132.179688 269.972656 132.171875 270.191406 132.054688 C 270.988281 131.636719 271.832031 131.347656 272.703125 131.125 C 274.085938 130.777344 275.496094 130.59375 276.90625 130.414062 C 279.511719 130.085938 282.128906 129.925781 284.757812 129.964844 C 286.554688 129.996094 288.347656 130.089844 290.132812 130.28125 C 291.039062 130.378906 291.945312 130.488281 292.84375 130.625 C 292.882812 130.632812 292.9375 130.617188 292.957031 130.664062 C 292.980469 130.722656 292.917969 130.746094 292.886719 130.78125 C 291.996094 131.738281 291.101562 132.691406 290.214844 133.652344 C 289.855469 134.035156 289.507812 134.425781 289.164062 134.824219 C 289.035156 134.972656 288.863281 134.957031 288.703125 134.976562 C 288.253906 135.039062 287.800781 135.074219 287.347656 135.121094 C 287.347656 135.125 287.347656 135.125 287.347656 135.128906 L 288.804688 135.128906 C 288.835938 135.167969 288.789062 135.191406 288.761719 135.21875 C 287.953125 136.054688 287.171875 136.917969 286.394531 137.78125 C 286.539062 137.875 286.6875 137.964844 286.832031 138.058594 C 287.503906 137.347656 288.167969 136.628906 288.835938 135.910156 C 289.0625 135.667969 289.296875 135.421875 289.527344 135.179688 C 289.609375 135.089844 289.71875 135.074219 289.832031 135.066406 C 291.488281 134.929688 293.136719 134.730469 294.75 134.308594 C 295.21875 134.1875 295.683594 134.058594 296.117188 133.84375 C 296.15625 133.828125 296.195312 133.804688 296.242188 133.828125 C 295.648438 134.578125 295.058594 135.324219 294.464844 136.070312 Z M 297.050781 132.035156 C 297.191406 131.875 297.21875 131.878906 297.300781 132.066406 C 297.441406 132.378906 297.4375 132.410156 297.175781 132.632812 C 296.824219 132.925781 296.421875 133.125 295.972656 133.289062 C 296.03125 133.125 296.15625 133.050781 296.246094 132.945312 C 296.511719 132.640625 296.78125 132.335938 297.050781 132.035156 Z M 296.667969 131.597656 C 296.953125 131.734375 296.949219 131.730469 296.746094 131.960938 C 296.394531 132.359375 296.046875 132.757812 295.707031 133.164062 C 295.472656 133.445312 295.183594 133.617188 294.835938 133.71875 C 293.398438 134.140625 291.941406 134.480469 290.460938 134.722656 C 290.285156 134.75 290.105469 134.769531 289.917969 134.789062 C 290.085938 134.566406 290.285156 134.386719 290.46875 134.1875 C 291.488281 133.066406 292.523438 131.957031 293.550781 130.839844 C 293.609375 130.773438 293.671875 130.746094 293.753906 130.761719 C 294.75 130.953125 295.746094 131.148438 296.667969 131.597656 Z M 304.863281 123.550781 C 304.753906 123.699219 304.625 123.703125 304.519531 123.738281 C 303.695312 124.003906 302.863281 124.261719 302 124.371094 C 301.136719 124.480469 300.269531 124.570312 299.402344 124.640625 C 298.894531 124.679688 298.386719 124.738281 297.875 124.789062 C 297.824219 124.792969 297.753906 124.773438 297.730469 124.839844 C 297.707031 124.90625 297.769531 124.933594 297.808594 124.972656 C 298.011719 125.167969 298.023438 125.191406 297.820312 125.417969 C 297.371094 125.917969 296.910156 126.40625 296.457031 126.898438 C 295.46875 127.976562 294.480469 129.050781 293.496094 130.128906 C 293.394531 130.242188 293.296875 130.289062 293.132812 130.261719 C 291.25 129.957031 289.351562 129.792969 287.445312 129.699219 C 285.355469 129.601562 283.265625 129.59375 281.175781 129.667969 C 279.75 129.722656 278.332031 129.828125 276.917969 130.003906 C 275.125 130.230469 273.34375 130.53125 271.609375 131.046875 C 270.984375 131.234375 270.367188 131.441406 269.8125 131.789062 C 269.714844 131.847656 269.671875 131.824219 269.601562 131.757812 C 269.15625 131.339844 268.757812 130.882812 268.34375 130.4375 C 267.058594 129.058594 265.78125 127.679688 264.503906 126.300781 C 263.851562 125.597656 263.207031 124.890625 262.5625 124.1875 C 262.546875 124.171875 262.542969 124.152344 262.523438 124.105469 C 262.765625 124.136719 262.988281 124.160156 263.210938 124.195312 C 264.117188 124.332031 265.035156 124.417969 265.945312 124.511719 C 267.578125 124.6875 269.21875 124.777344 270.855469 124.878906 C 272.152344 124.957031 273.449219 125.011719 274.746094 125.054688 C 278.628906 125.179688 282.519531 125.210938 286.40625 125.140625 C 288.910156 125.09375 291.414062 125.007812 293.914062 124.839844 C 295.816406 124.714844 297.722656 124.589844 299.617188 124.382812 C 301.074219 124.222656 302.535156 124.101562 303.964844 123.765625 C 304.25 123.699219 304.53125 123.628906 304.863281 123.550781 Z M 310.765625 113.058594 C 310.6875 113.125 310.59375 113.148438 310.496094 113.164062 C 310.277344 113.203125 310.148438 113.109375 310.109375 112.894531 C 310.082031 112.730469 310.101562 112.574219 310.140625 112.417969 C 310.25 111.953125 310.496094 111.5625 310.816406 111.214844 C 310.960938 111.058594 311.128906 110.976562 311.339844 111.054688 C 311.5 111.117188 311.589844 111.296875 311.589844 111.625 C 311.523438 112.160156 311.246094 112.664062 310.765625 113.058594 Z M 310.765625 113.058594 " fill-opacity="1" fill-rule="nonzero"/></g><path fill="#000000" d="M 277.875 141.570312 C 278.582031 142.179688 279.3125 142.753906 280.085938 143.269531 C 280.90625 143.808594 281.75 144.304688 282.726562 144.523438 C 283.976562 144.804688 285.128906 144.527344 286.21875 143.90625 C 287.335938 143.269531 288.28125 142.425781 289.195312 141.535156 C 289.480469 141.253906 289.773438 140.976562 290.070312 140.707031 C 289.914062 140.898438 289.765625 141.09375 289.601562 141.28125 C 288.824219 142.179688 288.046875 143.074219 287.121094 143.835938 C 286.289062 144.523438 285.371094 145.03125 284.296875 145.238281 C 283.277344 145.4375 282.359375 145.140625 281.480469 144.65625 C 280.09375 143.894531 278.972656 142.820312 277.914062 141.667969 C 277.894531 141.644531 277.855469 141.625 277.875 141.570312 Z M 277.875 141.570312 " fill-opacity="1" fill-rule="nonzero"/><path fill="#000000" d="M 279.800781 144.0625 C 280.539062 144.636719 281.246094 145.167969 282.074219 145.519531 C 283.457031 146.105469 284.753906 145.914062 285.984375 145.09375 C 286.773438 144.574219 287.445312 143.921875 288.117188 143.269531 C 288.167969 143.222656 288.214844 143.167969 288.265625 143.121094 C 288.273438 143.109375 288.289062 143.109375 288.339844 143.089844 C 288.160156 143.40625 287.960938 143.675781 287.75 143.933594 C 287.308594 144.472656 286.890625 145.039062 286.375 145.515625 C 285.179688 146.617188 283.527344 147.019531 281.980469 146.050781 C 281.296875 145.621094 280.195312 144.65625 279.800781 144.0625 Z M 279.800781 144.0625 " fill-opacity="1" fill-rule="nonzero"/><path fill="#000000" d="M 282.566406 175.09375 C 282.574219 175.117188 282.582031 175.128906 282.582031 175.144531 C 282.585938 175.6875 282.609375 175.710938 283.152344 175.757812 C 283.535156 175.792969 283.921875 175.804688 284.300781 175.730469 C 283.882812 175.859375 283.453125 175.886719 283.023438 175.820312 C 282.410156 175.730469 282.445312 175.765625 282.542969 175.117188 C 282.542969 175.113281 282.550781 175.109375 282.566406 175.09375 Z M 282.566406 175.09375 " fill-opacity="1" fill-rule="nonzero"/><path fill="#000000" d="M 298.152344 124.519531 C 299.394531 124.726562 300.679688 124.65625 301.894531 124.3125 C 302.230469 124.21875 302.5625 124.101562 302.886719 123.964844 C 302.921875 123.949219 302.859375 123.890625 302.828125 123.90625 C 301.683594 124.386719 300.433594 124.613281 299.195312 124.5625 C 298.84375 124.546875 298.492188 124.511719 298.148438 124.453125 C 298.09375 124.445312 298.113281 124.511719 298.152344 124.519531 Z M 298.152344 124.519531 " fill-opacity="1" fill-rule="nonzero"/><path fill="#000000" d="M 298.019531 124.8125 C 299.023438 124.898438 300.050781 124.847656 301.003906 124.488281 C 301.199219 124.414062 301.179688 124.125 300.953125 124.117188 C 300.277344 124.101562 299.597656 124.085938 298.921875 124.070312 C 298.675781 124.0625 298.675781 124.441406 298.921875 124.445312 C 299.597656 124.460938 300.277344 124.480469 300.953125 124.496094 C 300.9375 124.371094 300.921875 124.25 300.902344 124.125 C 299.980469 124.472656 298.996094 124.519531 298.019531 124.4375 C 297.773438 124.417969 297.777344 124.792969 298.019531 124.8125 Z M 298.019531 124.8125 " fill-opacity="1" fill-rule="nonzero"/><path fill="#000000" d="M 298.308594 124.644531 C 298.300781 124.644531 298.261719 124.640625 298.296875 124.644531 C 298.324219 124.648438 298.296875 124.644531 298.289062 124.644531 C 298.25 124.632812 298.296875 124.644531 298.296875 124.644531 C 298.292969 124.648438 298.257812 124.617188 298.28125 124.640625 C 298.304688 124.660156 298.28125 124.640625 298.277344 124.636719 C 298.253906 124.613281 298.28125 124.628906 298.28125 124.640625 C 298.28125 124.640625 298.269531 124.621094 298.265625 124.621094 C 298.277344 124.644531 298.277344 124.648438 298.273438 124.636719 C 298.273438 124.632812 298.269531 124.625 298.269531 124.617188 C 298.242188 124.523438 298.132812 124.457031 298.035156 124.488281 C 297.9375 124.519531 297.875 124.617188 297.902344 124.71875 C 297.953125 124.894531 298.121094 125.027344 298.308594 125.023438 C 298.40625 125.019531 298.5 124.9375 298.496094 124.832031 C 298.492188 124.734375 298.414062 124.644531 298.308594 124.644531 Z M 298.308594 124.644531 " fill-opacity="1" fill-rule="nonzero"/><path fill="#000000" d="M 297.957031 123.59375 C 297.867188 123.914062 297.71875 124.296875 297.730469 124.632812 C 297.738281 124.972656 298.085938 125.054688 298.347656 125.171875 C 298.566406 125.269531 298.757812 124.945312 298.539062 124.847656 C 298.433594 124.796875 298.324219 124.75 298.222656 124.703125 C 298.078125 124.636719 298.113281 124.558594 298.144531 124.417969 C 298.195312 124.171875 298.257812 123.933594 298.324219 123.691406 C 298.390625 123.460938 298.023438 123.359375 297.957031 123.59375 Z M 297.957031 123.59375 " fill-opacity="1" fill-rule="nonzero"/><path fill="#000000" d="M 298.257812 125.125 C 298.066406 124.730469 297.980469 124.402344 298.113281 123.976562 C 298.230469 123.621094 298.386719 123.273438 298.527344 122.925781 C 298.621094 122.699219 298.253906 122.601562 298.164062 122.824219 C 298 123.234375 297.78125 123.65625 297.691406 124.089844 C 297.601562 124.535156 297.738281 124.914062 297.929688 125.3125 C 298.039062 125.53125 298.363281 125.339844 298.257812 125.125 Z M 298.257812 125.125 " fill-opacity="1" fill-rule="nonzero"/><path fill="#000000" d="M 298.160156 124.03125 C 298.121094 123.632812 298.179688 123.261719 298.332031 122.894531 C 298.425781 122.667969 298.058594 122.570312 297.964844 122.792969 C 297.804688 123.1875 297.742188 123.605469 297.78125 124.03125 C 297.800781 124.269531 298.179688 124.273438 298.160156 124.03125 Z M 298.160156 124.03125 " fill-opacity="1" fill-rule="nonzero"/><path fill="#000000" d="M 298.140625 124.0625 C 298.117188 123.585938 298.171875 123.125 298.308594 122.671875 C 298.378906 122.4375 298.011719 122.339844 297.941406 122.570312 C 297.796875 123.054688 297.734375 123.554688 297.761719 124.0625 C 297.777344 124.300781 298.15625 124.304688 298.140625 124.0625 Z M 298.140625 124.0625 " fill-opacity="1" fill-rule="nonzero"/><path fill="#000000" d="M 300.367188 124.09375 C 299.757812 124.089844 299.15625 124.175781 298.574219 124.347656 C 298.363281 124.414062 298.414062 124.703125 298.625 124.71875 C 299.5 124.789062 300.386719 124.730469 301.246094 124.539062 C 301.667969 124.445312 302.078125 124.320312 302.480469 124.167969 C 302.894531 124.007812 303.300781 123.761719 303.75 123.746094 C 303.71875 123.628906 303.6875 123.511719 303.65625 123.394531 C 303.042969 123.664062 302.429688 123.933594 301.816406 124.207031 C 301.640625 124.285156 301.734375 124.5625 301.914062 124.558594 C 302.6875 124.535156 303.410156 124.261719 304.011719 123.78125 C 303.90625 123.722656 303.800781 123.660156 303.695312 123.601562 C 303.625 123.792969 303.464844 123.914062 303.265625 123.957031 C 303.300781 124.078125 303.332031 124.199219 303.367188 124.320312 C 303.875 124.203125 304.328125 123.921875 304.648438 123.511719 C 304.546875 123.4375 304.449219 123.359375 304.347656 123.285156 C 304.316406 123.347656 304.289062 123.414062 304.257812 123.476562 C 304.199219 123.601562 304.265625 123.765625 304.417969 123.761719 C 304.726562 123.75 304.988281 123.550781 305.042969 123.246094 C 305.085938 123.007812 304.71875 122.90625 304.675781 123.144531 C 304.652344 123.28125 304.566406 123.378906 304.417969 123.386719 C 304.472656 123.480469 304.527344 123.574219 304.582031 123.667969 C 304.613281 123.605469 304.644531 123.539062 304.675781 123.472656 C 304.761719 123.296875 304.519531 123.066406 304.378906 123.246094 C 304.09375 123.609375 303.71875 123.855469 303.265625 123.957031 C 303.027344 124.011719 303.128906 124.375 303.367188 124.320312 C 303.699219 124.246094 303.945312 124.015625 304.0625 123.699219 C 304.132812 123.503906 303.875 123.414062 303.746094 123.515625 C 303.222656 123.933594 302.578125 124.160156 301.914062 124.179688 C 301.945312 124.296875 301.976562 124.414062 302.007812 124.53125 C 302.621094 124.261719 303.234375 123.988281 303.847656 123.71875 C 304.023438 123.640625 303.929688 123.363281 303.75 123.367188 C 303.324219 123.382812 302.957031 123.566406 302.570312 123.726562 C 302.15625 123.898438 301.730469 124.039062 301.292969 124.140625 C 300.417969 124.351562 299.519531 124.414062 298.625 124.34375 C 298.640625 124.464844 298.660156 124.589844 298.675781 124.710938 C 299.226562 124.546875 299.789062 124.464844 300.367188 124.46875 C 300.609375 124.472656 300.613281 124.09375 300.367188 124.09375 Z M 300.367188 124.09375 " fill-opacity="1" fill-rule="nonzero"/><g fill="#1e3f62" fill-opacity="1"><g transform="translate(92.382658, 165.229048)"><g><path d="M 19.445312 -23.796875 L 11.796875 -9.554688 L 13.292969 -9.554688 L 8.160156 0 L -2.582031 0 L 2.277344 -9.042969 L 0.746094 -9.042969 L 6.015625 -18.835938 L 2.855469 -18.835938 L 8.667969 -23.796875 Z M 19.445312 -23.796875 "/></g></g></g><g fill="#1e3f62" fill-opacity="1"><g transform="translate(107.374944, 165.229048)"><g><path d="M 16.828125 -18.902344 L 15.570312 -16.589844 L 11.796875 -9.554688 L 13.292969 -9.554688 L 11.390625 -5.984375 L 11.863281 -4.894531 L 17.984375 -4.894531 L 19.683594 -5.984375 C 19.957031 -6.503906 20.222656 -7.015625 20.484375 -7.511719 C 20.746094 -8.011719 21.011719 -8.523438 21.28125 -9.042969 L 19.785156 -9.042969 L 23.152344 -15.332031 L 21.382812 -18.902344 Z M 2.242188 -9.042969 L 0.746094 -9.042969 L 4.792969 -16.589844 L 6.015625 -18.835938 L 2.855469 -18.835938 L 8.667969 -23.796875 C 12.546875 -23.796875 16.421875 -23.796875 20.296875 -23.796875 C 24.171875 -23.796875 28.035156 -23.796875 31.890625 -23.796875 L 32.027344 -23.796875 L 31.957031 -23.664062 L 35.050781 -17.40625 L 34.746094 -16.863281 C 34.109375 -15.660156 33.464844 -14.449219 32.808594 -13.226562 C 32.148438 -12 31.492188 -10.777344 30.835938 -9.554688 L 32.332031 -9.554688 L 31.789062 -8.5 L 31.074219 -7.207031 L 29.339844 -3.976562 L 23.21875 0 L -2.582031 0 C -1.789062 -1.519531 -0.984375 -3.027344 -0.171875 -4.523438 C 0.644531 -6.015625 1.449219 -7.523438 2.242188 -9.042969 Z M 2.242188 -9.042969 "/></g></g></g><g fill="#1e3f62" fill-opacity="1"><g transform="translate(141.031089, 165.229048)"><g><path d="M 16.828125 -18.902344 L 14.824219 -15.164062 L 21.214844 -15.164062 L 22.949219 -16.285156 L 23.730469 -17.816406 L 23.21875 -18.902344 Z M 11.796875 -9.554688 L 13.292969 -9.554688 L 8.160156 0 L -2.582031 0 L 2.277344 -9.042969 L 0.746094 -9.042969 L 3.570312 -14.277344 L 6.015625 -18.835938 L 2.855469 -18.835938 L 8.667969 -23.796875 C 12.839844 -23.796875 17.015625 -23.796875 21.199219 -23.796875 C 25.378906 -23.796875 29.554688 -23.796875 33.726562 -23.796875 L 35.5625 -19.820312 L 32.605469 -14.277344 L 26.484375 -10.300781 L 26.449219 -10.300781 L 26.417969 -9.554688 L 27.910156 -9.554688 L 27.4375 0 L 15.980469 0 L 16.453125 -9.042969 L 14.957031 -9.042969 L 15.027344 -10.300781 L 12.171875 -10.300781 Z M 11.796875 -9.554688 "/></g></g></g><g fill="#1e3f62" fill-opacity="1"><g transform="translate(174.143296, 165.229048)"><g><path d="M 19.445312 -23.796875 L 11.796875 -9.554688 L 13.292969 -9.554688 L 8.160156 0 L -2.582031 0 L 2.277344 -9.042969 L 0.746094 -9.042969 L 6.015625 -18.835938 L 2.855469 -18.835938 L 8.667969 -23.796875 Z M 19.445312 -23.796875 "/></g></g></g><g fill="#1e3f62" fill-opacity="1"><g transform="translate(189.135582, 165.229048)"><g><path d="M 14.925781 -9.042969 L 14.6875 -14.957031 L 11.796875 -9.554688 L 13.292969 -9.554688 L 8.160156 0 L -2.582031 0 L 2.277344 -9.042969 L 0.746094 -9.042969 L 6.015625 -18.835938 L 2.855469 -18.835938 L 8.667969 -23.796875 L 8.769531 -23.796875 C 11.082031 -23.796875 13.394531 -23.796875 15.707031 -23.796875 C 18.019531 -23.796875 20.34375 -23.796875 22.675781 -23.796875 L 23.1875 -9.554688 L 23.253906 -9.554688 L 30.902344 -23.796875 L 41.679688 -23.796875 L 33.996094 -9.554688 L 35.527344 -9.554688 L 30.394531 0 C 28.128906 0 25.859375 0 23.59375 0 C 21.328125 0 19.050781 0 16.761719 0 L 16.453125 -9.042969 Z M 14.925781 -9.042969 "/></g></g></g><g fill="#1e3f62" fill-opacity="1"><g transform="translate(226.361311, 165.229048)"><g><path d="M 8.667969 -23.796875 L 19.445312 -23.796875 L 14.550781 -14.652344 L 19.003906 -14.652344 L 22.609375 -17.949219 L 25.769531 -23.796875 L 36.546875 -23.796875 L 33.386719 -17.949219 L 33.316406 -17.78125 L 33.214844 -17.78125 L 26.3125 -11.492188 L 25.394531 -11.492188 L 25.429688 -9.554688 L 26.960938 -9.554688 L 27.027344 -5.847656 L 27.128906 0 L 16.351562 0 L 16.25 -6.460938 L 16.183594 -9.042969 L 14.6875 -9.042969 L 14.652344 -9.722656 L 11.863281 -9.722656 L 11.796875 -9.554688 L 13.292969 -9.554688 L 8.160156 0 L -2.582031 0 L 2.277344 -9.042969 L 0.746094 -9.042969 L 2.074219 -11.492188 L 3.773438 -14.652344 L 6.015625 -18.835938 L 2.855469 -18.835938 Z M 8.667969 -23.796875 "/></g></g></g><g clip-path="url(#e502a3a95a)"><path fill="#f5793b" d="M 187.496094 231.511719 L 80.039062 181.734375 L 187.082031 240.40625 L 187.261719 240.761719 L 187.496094 240.632812 L 187.730469 240.761719 L 187.910156 240.40625 L 294.949219 181.734375 L 187.496094 231.511719 " fill-opacity="1" fill-rule="nonzero"/></g></svg>